<svg width="440" height="340"><path stroke-width="1" stroke="black" d="M 264.44444444444446 200.35714285714286 353.3333333333333 168.21428571428572" /><path stroke-width="1" stroke="black" d="M 264.44444444444446 200.35714285714286 251.11111111111114 143.21428571428572" /><path stroke-width="1" stroke="black" d="M 264.44444444444446 200.35714285714286 304.44444444444446 191.42857142857142" /><path stroke-width="1" stroke="black" d="M 264.44444444444446 200.35714285714286 255.55555555555557 255.71428571428572" /><path stroke-width="1" stroke="black" d="M 264.44444444444446 200.35714285714286 211.1111111111111 275.3571428571429" /><path stroke-width="1" stroke="black" d="M 264.44444444444446 200.35714285714286 264.44444444444446 277.1428571428571" /><path stroke-width="1" stroke="black" d="M 264.44444444444446 200.35714285714286 340.0 186.07142857142858" /><path stroke-width="1" stroke="black" d="M 264.44444444444446 200.35714285714286 282.22222222222223 125.35714285714286" /><path stroke-width="1" stroke="black" d="M 264.44444444444446 200.35714285714286 188.88888888888889 252.1428571428571" /><path stroke-width="1" stroke="black" d="M 264.44444444444446 200.35714285714286 122.22222222222221 212.85714285714283" /><path stroke-width="1" stroke="black" d="M 264.44444444444446 200.35714285714286 335.55555555555554 236.07142857142853" /><path stroke-width="1" stroke="black" d="M 264.44444444444446 200.35714285714286 282.22222222222223 153.92857142857142" /><path stroke-width="1" stroke="black" d="M 264.44444444444446 200.35714285714286 388.8888888888889 216.42857142857142" /><path stroke-width="1" stroke="black" d="M 264.44444444444446 200.35714285714286 331.1111111111111 143.21428571428572" /><path stroke-width="1" stroke="black" d="M 264.44444444444446 200.35714285714286 420.0 202.14285714285714" /><path stroke-width="1" stroke="black" d="M 264.44444444444446 200.35714285714286 153.33333333333334 125.35714285714286" /><path stroke-width="1" stroke="black" d="M 353.3333333333333 168.21428571428572 264.44444444444446 200.35714285714286" /><path stroke-width="1" stroke="black" d="M 353.3333333333333 168.21428571428572 251.11111111111114 143.21428571428572" /><path stroke-width="1" stroke="black" d="M 353.3333333333333 168.21428571428572 304.44444444444446 191.42857142857142" /><path stroke-width="1" stroke="black" d="M 353.3333333333333 168.21428571428572 340.0 186.07142857142858" /><path stroke-width="1" stroke="black" d="M 353.3333333333333 168.21428571428572 282.22222222222223 153.92857142857142" /><path stroke-width="1" stroke="black" d="M 353.3333333333333 168.21428571428572 388.8888888888889 216.42857142857142" /><path stroke-width="1" stroke="black" d="M 353.3333333333333 168.21428571428572 331.1111111111111 143.21428571428572" /><path stroke-width="1" stroke="black" d="M 353.3333333333333 168.21428571428572 420.0 202.14285714285714" /><path stroke-width="1" stroke="black" d="M 353.3333333333333 168.21428571428572 344.44444444444446 107.5" /><path stroke-width="1" stroke="black" d="M 251.11111111111114 143.21428571428572 264.44444444444446 200.35714285714286" /><path stroke-width="1" stroke="black" d="M 251.11111111111114 143.21428571428572 353.3333333333333 168.21428571428572" /><path stroke-width="1" stroke="black" d="M 251.11111111111114 143.21428571428572 304.44444444444446 191.42857142857142" /><path stroke-width="1" stroke="black" d="M 251.11111111111114 143.21428571428572 340.0 186.07142857142858" /><path stroke-width="1" stroke="black" d="M 251.11111111111114 143.21428571428572 282.22222222222223 125.35714285714286" /><path stroke-width="1" stroke="black" d="M 251.11111111111114 143.21428571428572 197.7777777777778 100.35714285714286" /><path stroke-width="1" stroke="black" d="M 251.11111111111114 143.21428571428572 282.22222222222223 153.92857142857142" /><path stroke-width="1" stroke="black" d="M 251.11111111111114 143.21428571428572 122.22222222222221 103.92857142857143" /><path stroke-width="1" stroke="black" d="M 251.11111111111114 143.21428571428572 197.7777777777778 120.0" /><path stroke-width="1" stroke="black" d="M 251.11111111111114 143.21428571428572 260.0 73.57142857142857" /><path stroke-width="1" stroke="black" d="M 304.44444444444446 191.42857142857142 264.44444444444446 200.35714285714286" /><path stroke-width="1" stroke="black" d="M 304.44444444444446 191.42857142857142 353.3333333333333 168.21428571428572" /><path stroke-width="1" stroke="black" d="M 304.44444444444446 191.42857142857142 251.11111111111114 143.21428571428572" /><path stroke-width="1" stroke="black" d="M 304.44444444444446 191.42857142857142 340.0 186.07142857142858" /><path stroke-width="1" stroke="black" d="M 304.44444444444446 191.42857142857142 335.55555555555554 236.07142857142853" /><path stroke-width="1" stroke="black" d="M 304.44444444444446 191.42857142857142 282.22222222222223 153.92857142857142" /><path stroke-width="1" stroke="black" d="M 255.55555555555557 255.71428571428572 264.44444444444446 200.35714285714286" /><path stroke-width="1" stroke="black" d="M 255.55555555555557 255.71428571428572 264.44444444444446 277.1428571428571" /><path stroke-width="1" stroke="black" d="M 255.55555555555557 255.71428571428572 188.88888888888889 252.1428571428571" /><path stroke-width="1" stroke="black" d="M 211.1111111111111 275.3571428571429 264.44444444444446 200.35714285714286" /><path stroke-width="1" stroke="black" d="M 211.1111111111111 275.3571428571429 264.44444444444446 277.1428571428571" /><path stroke-width="1" stroke="black" d="M 211.1111111111111 275.3571428571429 188.88888888888889 252.1428571428571" /><path stroke-width="1" stroke="black" d="M 211.1111111111111 275.3571428571429 220.0 320.0" /><path stroke-width="1" stroke="black" d="M 264.44444444444446 277.1428571428571 264.44444444444446 200.35714285714286" /><path stroke-width="1" stroke="black" d="M 264.44444444444446 277.1428571428571 255.55555555555557 255.71428571428572" /><path stroke-width="1" stroke="black" d="M 264.44444444444446 277.1428571428571 211.1111111111111 275.3571428571429" /><path stroke-width="1" stroke="black" d="M 264.44444444444446 277.1428571428571 220.0 320.0" /><path stroke-width="1" stroke="black" d="M 340.0 186.07142857142858 264.44444444444446 200.35714285714286" /><path stroke-width="1" stroke="black" d="M 340.0 186.07142857142858 353.3333333333333 168.21428571428572" /><path stroke-width="1" stroke="black" d="M 340.0 186.07142857142858 251.11111111111114 143.21428571428572" /><path stroke-width="1" stroke="black" d="M 340.0 186.07142857142858 304.44444444444446 191.42857142857142" /><path stroke-width="1" stroke="black" d="M 282.22222222222223 125.35714285714286 264.44444444444446 200.35714285714286" /><path stroke-width="1" stroke="black" d="M 282.22222222222223 125.35714285714286 251.11111111111114 143.21428571428572" /><path stroke-width="1" stroke="black" d="M 282.22222222222223 125.35714285714286 344.44444444444446 107.5" /><path stroke-width="1" stroke="black" d="M 282.22222222222223 125.35714285714286 260.0 73.57142857142857" /><path stroke-width="1" stroke="black" d="M 282.22222222222223 125.35714285714286 246.66666666666666 82.5" /><path stroke-width="1" stroke="black" d="M 197.7777777777778 100.35714285714286 251.11111111111114 143.21428571428572" /><path stroke-width="1" stroke="black" d="M 197.7777777777778 100.35714285714286 246.66666666666666 82.5" /><path stroke-width="1" stroke="black" d="M 188.88888888888889 252.1428571428571 264.44444444444446 200.35714285714286" /><path stroke-width="1" stroke="black" d="M 188.88888888888889 252.1428571428571 255.55555555555557 255.71428571428572" /><path stroke-width="1" stroke="black" d="M 188.88888888888889 252.1428571428571 211.1111111111111 275.3571428571429" /><path stroke-width="1" stroke="black" d="M 122.22222222222221 212.85714285714283 264.44444444444446 200.35714285714286" /><path stroke-width="1" stroke="black" d="M 335.55555555555554 236.07142857142853 264.44444444444446 200.35714285714286" /><path stroke-width="1" stroke="black" d="M 335.55555555555554 236.07142857142853 304.44444444444446 191.42857142857142" /><path stroke-width="1" stroke="black" d="M 282.22222222222223 153.92857142857142 264.44444444444446 200.35714285714286" /><path stroke-width="1" stroke="black" d="M 282.22222222222223 153.92857142857142 353.3333333333333 168.21428571428572" /><path stroke-width="1" stroke="black" d="M 282.22222222222223 153.92857142857142 251.11111111111114 143.21428571428572" /><path stroke-width="1" stroke="black" d="M 282.22222222222223 153.92857142857142 304.44444444444446 191.42857142857142" /><path stroke-width="1" stroke="black" d="M 282.22222222222223 153.92857142857142 246.66666666666666 82.5" /><path stroke-width="1" stroke="black" d="M 348.88888888888886 43.21428571428571 260.0 73.57142857142857" /><path stroke-width="1" stroke="black" d="M 348.88888888888886 43.21428571428571 246.66666666666666 82.5" /><path stroke-width="1" stroke="black" d="M 273.33333333333337 27.14285714285715 260.0 73.57142857142857" /><path stroke-width="1" stroke="black" d="M 273.33333333333337 27.14285714285715 246.66666666666666 82.5" /><path stroke-width="1" stroke="black" d="M 220.0 320.0 211.1111111111111 275.3571428571429" /><path stroke-width="1" stroke="black" d="M 220.0 320.0 264.44444444444446 277.1428571428571" /><path stroke-width="1" stroke="black" d="M 388.8888888888889 216.42857142857142 264.44444444444446 200.35714285714286" /><path stroke-width="1" stroke="black" d="M 388.8888888888889 216.42857142857142 353.3333333333333 168.21428571428572" /><path stroke-width="1" stroke="black" d="M 313.33333333333337 34.2857142857143 260.0 73.57142857142857" /><path stroke-width="1" stroke="black" d="M 313.33333333333337 34.2857142857143 246.66666666666666 82.5" /><path stroke-width="1" stroke="black" d="M 331.1111111111111 143.21428571428572 264.44444444444446 200.35714285714286" /><path stroke-width="1" stroke="black" d="M 331.1111111111111 143.21428571428572 353.3333333333333 168.21428571428572" /><path stroke-width="1" stroke="black" d="M 331.1111111111111 143.21428571428572 246.66666666666666 82.5" /><path stroke-width="1" stroke="black" d="M 366.6666666666667 61.07142857142858 260.0 73.57142857142857" /><path stroke-width="1" stroke="black" d="M 366.6666666666667 61.07142857142858 246.66666666666666 82.5" /><path stroke-width="1" stroke="black" d="M 420.0 202.14285714285714 264.44444444444446 200.35714285714286" /><path stroke-width="1" stroke="black" d="M 420.0 202.14285714285714 353.3333333333333 168.21428571428572" /><path stroke-width="1" stroke="black" d="M 228.8888888888889 32.50000000000001 260.0 73.57142857142857" /><path stroke-width="1" stroke="black" d="M 228.8888888888889 32.50000000000001 246.66666666666666 82.5" /><path stroke-width="1" stroke="black" d="M 131.11111111111111 68.21428571428572 28.888888888888896 91.42857142857143" /><path stroke-width="1" stroke="black" d="M 131.11111111111111 68.21428571428572 122.22222222222221 103.92857142857143" /><path stroke-width="1" stroke="black" d="M 131.11111111111111 68.21428571428572 171.1111111111111 45.0" /><path stroke-width="1" stroke="black" d="M 131.11111111111111 68.21428571428572 260.0 73.57142857142857" /><path stroke-width="1" stroke="black" d="M 131.11111111111111 68.21428571428572 246.66666666666666 82.5" /><path stroke-width="1" stroke="black" d="M 20.0 116.42857142857142 28.888888888888896 91.42857142857143" /><path stroke-width="1" stroke="black" d="M 20.0 116.42857142857142 122.22222222222221 103.92857142857143" /><path stroke-width="1" stroke="black" d="M 20.0 116.42857142857142 153.33333333333334 125.35714285714286" /><path stroke-width="1" stroke="black" d="M 28.888888888888896 91.42857142857143 131.11111111111111 68.21428571428572" /><path stroke-width="1" stroke="black" d="M 28.888888888888896 91.42857142857143 20.0 116.42857142857142" /><path stroke-width="1" stroke="black" d="M 28.888888888888896 91.42857142857143 153.33333333333334 125.35714285714286" /><path stroke-width="1" stroke="black" d="M 162.22222222222223 20.0 171.1111111111111 45.0" /><path stroke-width="1" stroke="black" d="M 162.22222222222223 20.0 246.66666666666666 82.5" /><path stroke-width="1" stroke="black" d="M 122.22222222222221 103.92857142857143 251.11111111111114 143.21428571428572" /><path stroke-width="1" stroke="black" d="M 122.22222222222221 103.92857142857143 131.11111111111111 68.21428571428572" /><path stroke-width="1" stroke="black" d="M 122.22222222222221 103.92857142857143 20.0 116.42857142857142" /><path stroke-width="1" stroke="black" d="M 122.22222222222221 103.92857142857143 246.66666666666666 82.5" /><path stroke-width="1" stroke="black" d="M 197.7777777777778 120.0 251.11111111111114 143.21428571428572" /><path stroke-width="1" stroke="black" d="M 197.7777777777778 120.0 153.33333333333334 125.35714285714286" /><path stroke-width="1" stroke="black" d="M 197.7777777777778 120.0 246.66666666666666 82.5" /><path stroke-width="1" stroke="black" d="M 171.1111111111111 45.0 131.11111111111111 68.21428571428572" /><path stroke-width="1" stroke="black" d="M 171.1111111111111 45.0 162.22222222222223 20.0" /><path stroke-width="1" stroke="black" d="M 171.1111111111111 45.0 260.0 73.57142857142857" /><path stroke-width="1" stroke="black" d="M 171.1111111111111 45.0 246.66666666666666 82.5" /><path stroke-width="1" stroke="black" d="M 344.44444444444446 107.5 353.3333333333333 168.21428571428572" /><path stroke-width="1" stroke="black" d="M 344.44444444444446 107.5 282.22222222222223 125.35714285714286" /><path stroke-width="1" stroke="black" d="M 344.44444444444446 107.5 260.0 73.57142857142857" /><path stroke-width="1" stroke="black" d="M 344.44444444444446 107.5 246.66666666666666 82.5" /><path stroke-width="1" stroke="black" d="M 153.33333333333334 125.35714285714286 264.44444444444446 200.35714285714286" /><path stroke-width="1" stroke="black" d="M 153.33333333333334 125.35714285714286 20.0 116.42857142857142" /><path stroke-width="1" stroke="black" d="M 153.33333333333334 125.35714285714286 28.888888888888896 91.42857142857143" /><path stroke-width="1" stroke="black" d="M 153.33333333333334 125.35714285714286 197.7777777777778 120.0" /><path stroke-width="1" stroke="black" d="M 153.33333333333334 125.35714285714286 260.0 73.57142857142857" /><path stroke-width="1" stroke="black" d="M 153.33333333333334 125.35714285714286 246.66666666666666 82.5" /><path stroke-width="1" stroke="black" d="M 260.0 73.57142857142857 251.11111111111114 143.21428571428572" /><path stroke-width="1" stroke="black" d="M 260.0 73.57142857142857 282.22222222222223 125.35714285714286" /><path stroke-width="1" stroke="black" d="M 260.0 73.57142857142857 348.88888888888886 43.21428571428571" /><path stroke-width="1" stroke="black" d="M 260.0 73.57142857142857 273.33333333333337 27.14285714285715" /><path stroke-width="1" stroke="black" d="M 260.0 73.57142857142857 313.33333333333337 34.2857142857143" /><path stroke-width="1" stroke="black" d="M 260.0 73.57142857142857 366.6666666666667 61.07142857142858" /><path stroke-width="1" stroke="black" d="M 260.0 73.57142857142857 228.8888888888889 32.50000000000001" /><path stroke-width="1" stroke="black" d="M 260.0 73.57142857142857 131.11111111111111 68.21428571428572" /><path stroke-width="1" stroke="black" d="M 260.0 73.57142857142857 171.1111111111111 45.0" /><path stroke-width="1" stroke="black" d="M 260.0 73.57142857142857 344.44444444444446 107.5" /><path stroke-width="1" stroke="black" d="M 260.0 73.57142857142857 153.33333333333334 125.35714285714286" /><path stroke-width="1" stroke="black" d="M 260.0 73.57142857142857 246.66666666666666 82.5" /><path stroke-width="1" stroke="black" d="M 246.66666666666666 82.5 282.22222222222223 125.35714285714286" /><path stroke-width="1" stroke="black" d="M 246.66666666666666 82.5 197.7777777777778 100.35714285714286" /><path stroke-width="1" stroke="black" d="M 246.66666666666666 82.5 282.22222222222223 153.92857142857142" /><path stroke-width="1" stroke="black" d="M 246.66666666666666 82.5 348.88888888888886 43.21428571428571" /><path stroke-width="1" stroke="black" d="M 246.66666666666666 82.5 273.33333333333337 27.14285714285715" /><path stroke-width="1" stroke="black" d="M 246.66666666666666 82.5 313.33333333333337 34.2857142857143" /><path stroke-width="1" stroke="black" d="M 246.66666666666666 82.5 331.1111111111111 143.21428571428572" /><path stroke-width="1" stroke="black" d="M 246.66666666666666 82.5 366.6666666666667 61.07142857142858" /><path stroke-width="1" stroke="black" d="M 246.66666666666666 82.5 228.8888888888889 32.50000000000001" /><path stroke-width="1" stroke="black" d="M 246.66666666666666 82.5 131.11111111111111 68.21428571428572" /><path stroke-width="1" stroke="black" d="M 246.66666666666666 82.5 162.22222222222223 20.0" /><path stroke-width="1" stroke="black" d="M 246.66666666666666 82.5 122.22222222222221 103.92857142857143" /><path stroke-width="1" stroke="black" d="M 246.66666666666666 82.5 197.7777777777778 120.0" /><path stroke-width="1" stroke="black" d="M 246.66666666666666 82.5 171.1111111111111 45.0" /><path stroke-width="1" stroke="black" d="M 246.66666666666666 82.5 344.44444444444446 107.5" /><path stroke-width="1" stroke="black" d="M 246.66666666666666 82.5 153.33333333333334 125.35714285714286" /><path stroke-width="1" stroke="black" d="M 246.66666666666666 82.5 260.0 73.57142857142857" /><circle cx="264.44444444444446" cy="200.35714285714286" r="5" style="fill:rgb(187, 26, 43);stroke:black;stroke-width:1"/><circle cx="353.3333333333333" cy="168.21428571428572" r="5" style="fill:rgb(246, 166, 135);stroke:black;stroke-width:1"/><circle cx="251.11111111111114" cy="143.21428571428572" r="5" style="fill:rgb(243, 150, 120);stroke:black;stroke-width:1"/><circle cx="304.44444444444446" cy="191.42857142857142" r="5" style="fill:rgb(234, 211, 199);stroke:black;stroke-width:1"/><circle cx="255.55555555555557" cy="255.71428571428572" r="5" style="fill:rgb(172, 200, 252);stroke:black;stroke-width:1"/><circle cx="211.1111111111111" cy="275.3571428571429" r="5" style="fill:rgb(210, 218, 231);stroke:black;stroke-width:1"/><circle cx="264.44444444444446" cy="277.1428571428571" r="5" style="fill:rgb(210, 218, 231);stroke:black;stroke-width:1"/><circle cx="340.0" cy="186.07142857142858" r="5" style="fill:rgb(189, 210, 246);stroke:black;stroke-width:1"/><circle cx="282.22222222222223" cy="125.35714285714286" r="5" style="fill:rgb(214, 219, 228);stroke:black;stroke-width:1"/><circle cx="197.7777777777778" cy="100.35714285714286" r="5" style="fill:rgb(109, 144, 241);stroke:black;stroke-width:1"/><circle cx="188.88888888888889" cy="252.1428571428571" r="5" style="fill:rgb(172, 200, 252);stroke:black;stroke-width:1"/><circle cx="122.22222222222221" cy="212.85714285714283" r="5" style="fill:rgb(58, 76, 192);stroke:black;stroke-width:1"/><circle cx="335.55555555555554" cy="236.07142857142853" r="5" style="fill:rgb(112, 147, 243);stroke:black;stroke-width:1"/><circle cx="282.22222222222223" cy="153.92857142857142" r="5" style="fill:rgb(214, 219, 228);stroke:black;stroke-width:1"/><circle cx="348.88888888888886" cy="43.21428571428571" r="5" style="fill:rgb(112, 147, 243);stroke:black;stroke-width:1"/><circle cx="273.33333333333337" cy="27.14285714285715" r="5" style="fill:rgb(112, 147, 243);stroke:black;stroke-width:1"/><circle cx="220.0" cy="320.0" r="5" style="fill:rgb(134, 169, 252);stroke:black;stroke-width:1"/><circle cx="388.8888888888889" cy="216.42857142857142" r="5" style="fill:rgb(112, 147, 243);stroke:black;stroke-width:1"/><circle cx="313.33333333333337" cy="34.2857142857143" r="5" style="fill:rgb(112, 147, 243);stroke:black;stroke-width:1"/><circle cx="331.1111111111111" cy="143.21428571428572" r="5" style="fill:rgb(159, 190, 254);stroke:black;stroke-width:1"/><circle cx="366.6666666666667" cy="61.07142857142858" r="5" style="fill:rgb(112, 147, 243);stroke:black;stroke-width:1"/><circle cx="420.0" cy="202.14285714285714" r="5" style="fill:rgb(112, 147, 243);stroke:black;stroke-width:1"/><circle cx="228.8888888888889" cy="32.50000000000001" r="5" style="fill:rgb(112, 147, 243);stroke:black;stroke-width:1"/><circle cx="131.11111111111111" cy="68.21428571428572" r="5" style="fill:rgb(222, 219, 218);stroke:black;stroke-width:1"/><circle cx="20.0" cy="116.42857142857142" r="5" style="fill:rgb(170, 198, 253);stroke:black;stroke-width:1"/><circle cx="28.888888888888896" cy="91.42857142857143" r="5" style="fill:rgb(170, 198, 253);stroke:black;stroke-width:1"/><circle cx="162.22222222222223" cy="20.0" r="5" style="fill:rgb(120, 155, 247);stroke:black;stroke-width:1"/><circle cx="122.22222222222221" cy="103.92857142857143" r="5" style="fill:rgb(197, 213, 242);stroke:black;stroke-width:1"/><circle cx="197.7777777777778" cy="120.0" r="5" style="fill:rgb(159, 190, 254);stroke:black;stroke-width:1"/><circle cx="171.1111111111111" cy="45.0" r="5" style="fill:rgb(199, 214, 240);stroke:black;stroke-width:1"/><circle cx="344.44444444444446" cy="107.5" r="5" style="fill:rgb(189, 210, 246);stroke:black;stroke-width:1"/><circle cx="153.33333333333334" cy="125.35714285714286" r="5" style="fill:rgb(237, 207, 192);stroke:black;stroke-width:1"/><circle cx="260.0" cy="73.57142857142857" r="5" style="fill:rgb(227, 108, 84);stroke:black;stroke-width:1"/><circle cx="246.66666666666666" cy="82.5" r="5" style="fill:rgb(179, 3, 38);stroke:black;stroke-width:1"/></svg>
