<svg width="440" height="340"><path stroke-width="1" stroke="black" d="M 264 200 353 168" /><path stroke-width="1" stroke="black" d="M 264 200 251 143" /><path stroke-width="1" stroke="black" d="M 264 200 304 191" /><path stroke-width="1" stroke="black" d="M 264 200 255 255" /><path stroke-width="1" stroke="black" d="M 264 200 211 275" /><path stroke-width="1" stroke="black" d="M 264 200 264 277" /><path stroke-width="1" stroke="black" d="M 264 200 340 186" /><path stroke-width="1" stroke="black" d="M 264 200 282 125" /><path stroke-width="1" stroke="black" d="M 264 200 188 252" /><path stroke-width="1" stroke="black" d="M 264 200 122 212" /><path stroke-width="1" stroke="black" d="M 264 200 335 236" /><path stroke-width="1" stroke="black" d="M 264 200 282 153" /><path stroke-width="1" stroke="black" d="M 264 200 388 216" /><path stroke-width="1" stroke="black" d="M 264 200 331 143" /><path stroke-width="1" stroke="black" d="M 264 200 420 202" /><path stroke-width="1" stroke="black" d="M 264 200 153 125" /><path stroke-width="1" stroke="black" d="M 353 168 264 200" /><path stroke-width="1" stroke="black" d="M 353 168 251 143" /><path stroke-width="1" stroke="black" d="M 353 168 304 191" /><path stroke-width="1" stroke="black" d="M 353 168 340 186" /><path stroke-width="1" stroke="black" d="M 353 168 282 153" /><path stroke-width="1" stroke="black" d="M 353 168 388 216" /><path stroke-width="1" stroke="black" d="M 353 168 331 143" /><path stroke-width="1" stroke="black" d="M 353 168 420 202" /><path stroke-width="1" stroke="black" d="M 353 168 344 107" /><path stroke-width="1" stroke="black" d="M 251 143 264 200" /><path stroke-width="1" stroke="black" d="M 251 143 353 168" /><path stroke-width="1" stroke="black" d="M 251 143 304 191" /><path stroke-width="1" stroke="black" d="M 251 143 340 186" /><path stroke-width="1" stroke="black" d="M 251 143 282 125" /><path stroke-width="1" stroke="black" d="M 251 143 197 100" /><path stroke-width="1" stroke="black" d="M 251 143 282 153" /><path stroke-width="1" stroke="black" d="M 251 143 122 103" /><path stroke-width="1" stroke="black" d="M 251 143 197 120" /><path stroke-width="1" stroke="black" d="M 251 143 260 73" /><path stroke-width="1" stroke="black" d="M 304 191 264 200" /><path stroke-width="1" stroke="black" d="M 304 191 353 168" /><path stroke-width="1" stroke="black" d="M 304 191 251 143" /><path stroke-width="1" stroke="black" d="M 304 191 340 186" /><path stroke-width="1" stroke="black" d="M 304 191 335 236" /><path stroke-width="1" stroke="black" d="M 304 191 282 153" /><path stroke-width="1" stroke="black" d="M 255 255 264 200" /><path stroke-width="1" stroke="black" d="M 255 255 264 277" /><path stroke-width="1" stroke="black" d="M 255 255 188 252" /><path stroke-width="1" stroke="black" d="M 211 275 264 200" /><path stroke-width="1" stroke="black" d="M 211 275 264 277" /><path stroke-width="1" stroke="black" d="M 211 275 188 252" /><path stroke-width="1" stroke="black" d="M 211 275 220 320" /><path stroke-width="1" stroke="black" d="M 264 277 264 200" /><path stroke-width="1" stroke="black" d="M 264 277 255 255" /><path stroke-width="1" stroke="black" d="M 264 277 211 275" /><path stroke-width="1" stroke="black" d="M 264 277 220 320" /><path stroke-width="1" stroke="black" d="M 340 186 264 200" /><path stroke-width="1" stroke="black" d="M 340 186 353 168" /><path stroke-width="1" stroke="black" d="M 340 186 251 143" /><path stroke-width="1" stroke="black" d="M 340 186 304 191" /><path stroke-width="1" stroke="black" d="M 282 125 264 200" /><path stroke-width="1" stroke="black" d="M 282 125 251 143" /><path stroke-width="1" stroke="black" d="M 282 125 344 107" /><path stroke-width="1" stroke="black" d="M 282 125 260 73" /><path stroke-width="1" stroke="black" d="M 282 125 246 82" /><path stroke-width="1" stroke="black" d="M 197 100 251 143" /><path stroke-width="1" stroke="black" d="M 197 100 246 82" /><path stroke-width="1" stroke="black" d="M 188 252 264 200" /><path stroke-width="1" stroke="black" d="M 188 252 255 255" /><path stroke-width="1" stroke="black" d="M 188 252 211 275" /><path stroke-width="1" stroke="black" d="M 122 212 264 200" /><path stroke-width="1" stroke="black" d="M 335 236 264 200" /><path stroke-width="1" stroke="black" d="M 335 236 304 191" /><path stroke-width="1" stroke="black" d="M 282 153 264 200" /><path stroke-width="1" stroke="black" d="M 282 153 353 168" /><path stroke-width="1" stroke="black" d="M 282 153 251 143" /><path stroke-width="1" stroke="black" d="M 282 153 304 191" /><path stroke-width="1" stroke="black" d="M 282 153 246 82" /><path stroke-width="1" stroke="black" d="M 348 43 260 73" /><path stroke-width="1" stroke="black" d="M 348 43 246 82" /><path stroke-width="1" stroke="black" d="M 273 27 260 73" /><path stroke-width="1" stroke="black" d="M 273 27 246 82" /><path stroke-width="1" stroke="black" d="M 220 320 211 275" /><path stroke-width="1" stroke="black" d="M 220 320 264 277" /><path stroke-width="1" stroke="black" d="M 388 216 264 200" /><path stroke-width="1" stroke="black" d="M 388 216 353 168" /><path stroke-width="1" stroke="black" d="M 313 34 260 73" /><path stroke-width="1" stroke="black" d="M 313 34 246 82" /><path stroke-width="1" stroke="black" d="M 331 143 264 200" /><path stroke-width="1" stroke="black" d="M 331 143 353 168" /><path stroke-width="1" stroke="black" d="M 331 143 246 82" /><path stroke-width="1" stroke="black" d="M 366 61 260 73" /><path stroke-width="1" stroke="black" d="M 366 61 246 82" /><path stroke-width="1" stroke="black" d="M 420 202 264 200" /><path stroke-width="1" stroke="black" d="M 420 202 353 168" /><path stroke-width="1" stroke="black" d="M 228 32 260 73" /><path stroke-width="1" stroke="black" d="M 228 32 246 82" /><path stroke-width="1" stroke="black" d="M 131 68 28 91" /><path stroke-width="1" stroke="black" d="M 131 68 122 103" /><path stroke-width="1" stroke="black" d="M 131 68 171 45" /><path stroke-width="1" stroke="black" d="M 131 68 260 73" /><path stroke-width="1" stroke="black" d="M 131 68 246 82" /><path stroke-width="1" stroke="black" d="M 20 116 28 91" /><path stroke-width="1" stroke="black" d="M 20 116 122 103" /><path stroke-width="1" stroke="black" d="M 20 116 153 125" /><path stroke-width="1" stroke="black" d="M 28 91 131 68" /><path stroke-width="1" stroke="black" d="M 28 91 20 116" /><path stroke-width="1" stroke="black" d="M 28 91 153 125" /><path stroke-width="1" stroke="black" d="M 162 20 171 45" /><path stroke-width="1" stroke="black" d="M 162 20 246 82" /><path stroke-width="1" stroke="black" d="M 122 103 251 143" /><path stroke-width="1" stroke="black" d="M 122 103 131 68" /><path stroke-width="1" stroke="black" d="M 122 103 20 116" /><path stroke-width="1" stroke="black" d="M 122 103 246 82" /><path stroke-width="1" stroke="black" d="M 197 120 251 143" /><path stroke-width="1" stroke="black" d="M 197 120 153 125" /><path stroke-width="1" stroke="black" d="M 197 120 246 82" /><path stroke-width="1" stroke="black" d="M 171 45 131 68" /><path stroke-width="1" stroke="black" d="M 171 45 162 20" /><path stroke-width="1" stroke="black" d="M 171 45 260 73" /><path stroke-width="1" stroke="black" d="M 171 45 246 82" /><path stroke-width="1" stroke="black" d="M 344 107 353 168" /><path stroke-width="1" stroke="black" d="M 344 107 282 125" /><path stroke-width="1" stroke="black" d="M 344 107 260 73" /><path stroke-width="1" stroke="black" d="M 344 107 246 82" /><path stroke-width="1" stroke="black" d="M 153 125 264 200" /><path stroke-width="1" stroke="black" d="M 153 125 20 116" /><path stroke-width="1" stroke="black" d="M 153 125 28 91" /><path stroke-width="1" stroke="black" d="M 153 125 197 120" /><path stroke-width="1" stroke="black" d="M 153 125 260 73" /><path stroke-width="1" stroke="black" d="M 153 125 246 82" /><path stroke-width="1" stroke="black" d="M 260 73 251 143" /><path stroke-width="1" stroke="black" d="M 260 73 282 125" /><path stroke-width="1" stroke="black" d="M 260 73 348 43" /><path stroke-width="1" stroke="black" d="M 260 73 273 27" /><path stroke-width="1" stroke="black" d="M 260 73 313 34" /><path stroke-width="1" stroke="black" d="M 260 73 366 61" /><path stroke-width="1" stroke="black" d="M 260 73 228 32" /><path stroke-width="1" stroke="black" d="M 260 73 131 68" /><path stroke-width="1" stroke="black" d="M 260 73 171 45" /><path stroke-width="1" stroke="black" d="M 260 73 344 107" /><path stroke-width="1" stroke="black" d="M 260 73 153 125" /><path stroke-width="1" stroke="black" d="M 260 73 246 82" /><path stroke-width="1" stroke="black" d="M 246 82 282 125" /><path stroke-width="1" stroke="black" d="M 246 82 197 100" /><path stroke-width="1" stroke="black" d="M 246 82 282 153" /><path stroke-width="1" stroke="black" d="M 246 82 348 43" /><path stroke-width="1" stroke="black" d="M 246 82 273 27" /><path stroke-width="1" stroke="black" d="M 246 82 313 34" /><path stroke-width="1" stroke="black" d="M 246 82 331 143" /><path stroke-width="1" stroke="black" d="M 246 82 366 61" /><path stroke-width="1" stroke="black" d="M 246 82 228 32" /><path stroke-width="1" stroke="black" d="M 246 82 131 68" /><path stroke-width="1" stroke="black" d="M 246 82 162 20" /><path stroke-width="1" stroke="black" d="M 246 82 122 103" /><path stroke-width="1" stroke="black" d="M 246 82 197 120" /><path stroke-width="1" stroke="black" d="M 246 82 171 45" /><path stroke-width="1" stroke="black" d="M 246 82 344 107" /><path stroke-width="1" stroke="black" d="M 246 82 153 125" /><path stroke-width="1" stroke="black" d="M 246 82 260 73" /><circle cx="264" cy="200" r="7.0" style="fill:red;stroke:black;stroke-width:1.0"/><circle cx="353" cy="168" r="7.0" style="fill:red;stroke:black;stroke-width:1.0"/><circle cx="251" cy="143" r="7.0" style="fill:red;stroke:black;stroke-width:1.0"/><circle cx="304" cy="191" r="7.0" style="fill:red;stroke:black;stroke-width:1.0"/><circle cx="255" cy="255" r="7.0" style="fill:red;stroke:black;stroke-width:1.0"/><circle cx="211" cy="275" r="7.0" style="fill:red;stroke:black;stroke-width:1.0"/><circle cx="264" cy="277" r="7.0" style="fill:red;stroke:black;stroke-width:1.0"/><circle cx="340" cy="186" r="7.0" style="fill:red;stroke:black;stroke-width:1.0"/><circle cx="282" cy="125" r="7.0" style="fill:red;stroke:black;stroke-width:1.0"/><circle cx="197" cy="100" r="7.0" style="fill:blue;stroke:black;stroke-width:1.0"/><circle cx="188" cy="252" r="7.0" style="fill:red;stroke:black;stroke-width:1.0"/><circle cx="122" cy="212" r="7.0" style="fill:red;stroke:black;stroke-width:1.0"/><circle cx="335" cy="236" r="7.0" style="fill:red;stroke:black;stroke-width:1.0"/><circle cx="282" cy="153" r="7.0" style="fill:red;stroke:black;stroke-width:1.0"/><circle cx="348" cy="43" r="7.0" style="fill:blue;stroke:black;stroke-width:1.0"/><circle cx="273" cy="27" r="7.0" style="fill:blue;stroke:black;stroke-width:1.0"/><circle cx="220" cy="320" r="7.0" style="fill:red;stroke:black;stroke-width:1.0"/><circle cx="388" cy="216" r="7.0" style="fill:red;stroke:black;stroke-width:1.0"/><circle cx="313" cy="34" r="7.0" style="fill:blue;stroke:black;stroke-width:1.0"/><circle cx="331" cy="143" r="7.0" style="fill:red;stroke:black;stroke-width:1.0"/><circle cx="366" cy="61" r="7.0" style="fill:blue;stroke:black;stroke-width:1.0"/><circle cx="420" cy="202" r="7.0" style="fill:red;stroke:black;stroke-width:1.0"/><circle cx="228" cy="32" r="7.0" style="fill:blue;stroke:black;stroke-width:1.0"/><circle cx="131" cy="68" r="7.0" style="fill:blue;stroke:black;stroke-width:1.0"/><circle cx="20" cy="116" r="7.0" style="fill:blue;stroke:black;stroke-width:1.0"/><circle cx="28" cy="91" r="7.0" style="fill:blue;stroke:black;stroke-width:1.0"/><circle cx="162" cy="20" r="7.0" style="fill:blue;stroke:black;stroke-width:1.0"/><circle cx="122" cy="103" r="7.0" style="fill:blue;stroke:black;stroke-width:1.0"/><circle cx="197" cy="120" r="7.0" style="fill:blue;stroke:black;stroke-width:1.0"/><circle cx="171" cy="45" r="7.0" style="fill:blue;stroke:black;stroke-width:1.0"/><circle cx="344" cy="107" r="7.0" style="fill:blue;stroke:black;stroke-width:1.0"/><circle cx="153" cy="125" r="7.0" style="fill:blue;stroke:black;stroke-width:1.0"/><circle cx="260" cy="73" r="7.0" style="fill:blue;stroke:black;stroke-width:1.0"/><circle cx="246" cy="82" r="7.0" style="fill:blue;stroke:black;stroke-width:1.0"/></svg>