<svg width="440" height="340" xmlns="http://www.w3.org/2000/svg"><path stroke-width="1" stroke="black" d="M 220 20 20 120" /><path stroke-width="1" stroke="black" d="M 220 20 420 120" /><path stroke-width="1" stroke="black" d="M 20 120 220 20" /><path stroke-width="1" stroke="black" d="M 20 120 20 320" /><path stroke-width="1" stroke="black" d="M 20 120 420 120" /><path stroke-width="1" stroke="black" d="M 20 320 20 120" /><path stroke-width="1" stroke="black" d="M 20 320 420 320" /><path stroke-width="1" stroke="black" d="M 420 320 20 320" /><path stroke-width="1" stroke="black" d="M 420 320 420 120" /><path stroke-width="1" stroke="black" d="M 420 120 220 20" /><path stroke-width="1" stroke="black" d="M 420 120 20 120" /><path stroke-width="1" stroke="black" d="M 420 120 420 320" /><circle cx="220" cy="20" r="7.0" style="fill:green;stroke:black;stroke-width:1.0"/><circle cx="20" cy="120" r="7.0" style="fill:orange;stroke:black;stroke-width:1.0"/><circle cx="20" cy="320" r="7.0" style="fill:red;stroke:black;stroke-width:1.0"/><circle cx="420" cy="320" r="7.0" style="fill:red;stroke:black;stroke-width:1.0"/><circle cx="420" cy="120" r="7.0" style="fill:orange;stroke:black;stroke-width:1.0"/></svg>